/* XPM */
static char *f470217c1c4c4eace1e3dd46ff549b21QoXOSO5PnCCPff3r[] = {
/* columns rows colors chars-per-pixel */
"16 16 168 2 ",
"   c None",
".  c #AE1515",
"X  c #AE1616",
"o  c #B01C1D",
"O  c #B01F1E",
"+  c #B01E1F",
"@  c #B01F20",
"#  c #B12020",
"$  c #B12221",
"%  c #B12122",
"&  c #B12222",
"*  c #B12223",
"=  c #B12323",
"-  c #B22323",
";  c #B22525",
":  c #B32724",
">  c #B32625",
",  c #B22825",
"<  c #B32929",
"1  c #B42A2C",
"2  c #B42C2C",
"3  c #B52F2F",
"4  c #B63233",
"5  c #B63433",
"6  c #B63535",
"7  c #B83A3A",
"8  c #B93F3F",
"9  c #BA4240",
"0  c #BD4D4B",
"q  c #BE4C4B",
"w  c #BF4F4F",
"e  c #BF5151",
"r  c #C1544F",
"t  c #C05351",
"y  c #C35A56",
"u  c #C45E5B",
"i  c #C46161",
"p  c #C56363",
"a  c #C66A6A",
"s  c #C76E6A",
"d  c #C87776",
"f  c #CB7B79",
"g  c #DD9B1D",
"h  c #DD9E1E",
"j  c #E4A415",
"k  c #F2BD1A",
"l  c #F2B81D",
"z  c #DB9F29",
"x  c #E19D27",
"c  c #DCA43B",
"v  c #E8B323",
"b  c #E4B02A",
"n  c #EFB02E",
"m  c #E2A934",
"M  c #E9BA30",
"N  c #F4C020",
"B  c #F0C72B",
"V  c #F1CA37",
"C  c #DEB05B",
"Z  c #F3CE48",
"A  c #EDC558",
"S  c #F1D566",
"D  c #E5C075",
"F  c #D08982",
"G  c #D3928F",
"H  c #D39191",
"J  c #D69E99",
"K  c #D69D9D",
"L  c #D89B99",
"P  c #D99E9C",
"I  c #DEACA1",
"U  c #D9A8A8",
"Y  c #DDACAC",
"T  c #DDB5B3",
"R  c #DBB6B4",
"E  c #DFBAB9",
"W  c #E0BEBD",
"Q  c #EBC78F",
"!  c #F1D181",
"~  c #E3C492",
"^  c #EED292",
"/  c #F5E081",
"(  c #F4E295",
")  c #E0C1AD",
"_  c #E5C0AF",
"`  c #E4CDB0",
"'  c #E2C1BD",
"]  c #E8D2B0",
"[  c #F3E1A8",
"{  c #E2C2C3",
"}  c #E3C5C2",
"|  c #E3C3C4",
" . c #E5C7C4",
".. c #E5C6C6",
"X. c #E6C8C5",
"o. c #E6C9C6",
"O. c #E7CAC6",
"+. c #E5CCC7",
"@. c #E8CBC6",
"#. c #E9CCC6",
"$. c #E7CACB",
"%. c #E2CCCC",
"&. c #E8CBC9",
"*. c #E8CACB",
"=. c #E8CBCB",
"-. c #EACECE",
";. c #EFDDC4",
":. c #E7D2CF",
">. c #ECDEC8",
",. c #E6D1D1",
"<. c #EBD4D4",
"1. c #ECD7D7",
"2. c #E7D9D7",
"3. c #E7DAD9",
"4. c #ECD9D9",
"5. c #EADCDB",
"6. c #EEDDD9",
"7. c #EBDBDC",
"8. c #EDDDDD",
"9. c #ECDEDD",
"0. c #EDDEDE",
"q. c #ECDFDF",
"w. c #EDDFDF",
"e. c #EEDFDF",
"r. c #F2E6C1",
"t. c #F4EBCD",
"y. c #ECE0D8",
"u. c #F1E7D0",
"i. c #F2E8D2",
"p. c #F2EBDA",
"a. c #F6F1DC",
"s. c #F7F3DF",
"d. c #ECE0E0",
"f. c #EDE0E0",
"g. c #ECE1E0",
"h. c #EDE1E1",
"j. c #EEE0E0",
"k. c #EEE2E2",
"l. c #EBE7E6",
"z. c #ECEAE7",
"x. c #EDE9E9",
"c. c #EEEBEA",
"v. c gray93",
"b. c #EFEEED",
"n. c #EEEEEE",
"m. c #F2E6E5",
"M. c #F1ECE4",
"N. c #F2EFE6",
"B. c #F3EAEA",
"V. c #F0EFEF",
"C. c #F1F0EF",
"Z. c #F1F1F1",
"A. c gray95",
"S. c #F3F3F3",
"D. c #F5F3F3",
"F. c #F4F4F4",
"G. c gray96",
"H. c #F7F4F4",
"J. c #F6F5F4",
"K. c #F7F5F6",
"L. c #F6F6F6",
"P. c #F7F6F6",
"I. c #F7F7F6",
"U. c #F9F9F6",
"Y. c #F8F8F8",
"T. c #F9F9F9",
"R. c #F9FAFA",
"E. c gray98",
/* pixels */
"          T.T.m.B.T.U.          ",
"      T.T.L.Y 1 r N.a.E.T.      ",
"    T.L.=.w . . I S #.=.U.Y.    ",
"  L.1.p + u s y ( A P $ i <.U.  ",
"  e.5 2 H D.q _ V ^ L.L 4 2 6.  ",
"L.-.@ 4.L.f.F / v u.L.K.7.= #.L.",
"D.$.= f.L.' t.B m u.p.F.h.; #.F.",
"S...= e.S.M.Z M z g D F.h.; #.F.",
"F.{ * e.F.[ N k b c 9.S.y.; $.A.",
"S.{ * 9.S.M.r.l z ;.R A.d.; ..S.",
"Z.{ = 7.Z.Z.! j ~ d y.A.3.= ..S.",
"  ,.: 8 U V.n C G f V.K 6 = :.  ",
"  b.} r : ;.x ) 7 E a o q W b.  ",
"    b.x.+.Q ` e o ; 9 R x.b.    ",
"      b.b.] %.< : J l.b.b.      ",
"          z.v.3.3.v.b.          "
};
