/* XPM */
static char *_622057147738[] = {
/* columns rows colors chars-per-pixel */
"64 64 212 2 ",
"   c #8F0F00000000",
".  c #960A00000000",
"X  c #9E1500000000",
"o  c #A403014900EB",
"O  c #A8A806D4049E",
"+  c #A7A7080806DC",
"@  c #A92108EB0633",
"#  c #A7A70A6009B4",
"$  c #A96D0B530A1D",
"%  c #A2A207070808",
"&  c #AB2A10E60E64",
"*  c #ABAB1D1D0D0D",
"=  c #B25C186E0505",
"-  c #A9FF12681192",
";  c #ABAB166C1414",
":  c #B1311D1D199A",
">  c #ADAD21211C1C",
",  c #B53525A61F1F",
"<  c #BBBB37371A1A",
"1  c #AF0424CF23CE",
"2  c #B6B62B6B2727",
"3  c #BCBC37372AAB",
"4  c #B535343431F2",
"5  c #BABA3B913636",
"6  c #B5753D3D3B3B",
"7  c #BABA3CE7388E",
"8  c #B8B8373733DE",
"9  c #BFBF74740000",
"0  c #BDD741743EA5",
"q  c #C5C56D6D0000",
"w  c #DADA6F6F0000",
"e  c #C2C272720000",
"r  c #CACA72F30000",
"t  c #C5657B1B0000",
"y  c #C6C648483737",
"u  c #B73743834343",
"i  c #BCBC44914303",
"p  c #BEFE49894606",
"a  c #BECC4D784CBE",
"s  c #BFBF52524C4C",
"d  c #BE2454875454",
"f  c #C0C04DF84CF7",
"g  c #C3C34B4B4646",
"h  c #C21751A74DA3",
"j  c #C20153F45353",
"k  c #C44458D956D7",
"l  c #C4C45D5D5B05",
"z  c #D45473735858",
"x  c #C64664246323",
"c  c #CB4B6A6A65E6",
"v  c #CBCB6DAD6BAB",
"b  c #C9C9646460E1",
"n  c #CA4A71F26E6E",
"m  c #C61B721C711B",
"M  c #CE857507732A",
"N  c #CE4E79797676",
"B  c #CC7F7BC87AAD",
"V  c #CC2883260101",
"C  c #CFCF88880283",
"Z  c #CA0985450889",
"A  c #D4D486060000",
"S  c #D3088C200246",
"D  c #D4D48F8F0808",
"F  c #D70D9236015D",
"G  c #DC9C95E2039D",
"H  c #D7979252098A",
"J  c #DA5D96020B80",
"K  c #DF5F99990687",
"L  c #CF248C3612BD",
"P  c #C3C383831C1C",
"I  c #DADA98981394",
"U  c #EBEB86860000",
"Y  c #F2F28C8C0000",
"T  c #E18B96EC0000",
"R  c #E3759D2F014A",
"E  c #E63B99990C0C",
"W  c #F3F392920000",
"Q  c #F4269C690000",
"!  c #E3E39F9F1010",
"~  c #EB0FA960044D",
"^  c #F317A47F0194",
"/  c #F28EAC7301E5",
"(  c #F1F1AFAF0C0C",
")  c #EEEEBFBF0000",
"_  c #F33BB4EB0230",
"`  c #F2ADBB3B01DA",
"'  c #F2ACBB0009AD",
"]  c #F2F2B4B40E0E",
"[  c #F575A4A41293",
"{  c #F3F3BD3D1495",
"}  c #E7E7AE2E1A1A",
"|  c #D4549C1C24A5",
" . c #D5D59A9A2BAC",
".. c #CF2494EA34DF",
"X. c #DADAA6503535",
"o. c #DBDBB0B03B3B",
"O. c #E464AAEA26A7",
"+. c #EBEBBBBB2020",
"@. c #E8E8BBBB3636",
"#. c #F2F2C3E80018",
"$. c #F4C5CC9D0000",
"%. c #F3F3C7060C8D",
"&. c #F575D1D10000",
"*. c #F9F9D7D70000",
"=. c #F3F3C2011353",
"-. c #F2F2C0C01F1F",
";. c #F59FD5AA1742",
":. c #F2F2CACA35B6",
">. c #F4F4D3283939",
",. c #F3F3CACA2121",
"<. c #DBDBAD024444",
"1. c #DADAA52547C8",
"2. c #DF5FB93957D8",
"3. c #D1D1A5A55757",
"4. c #E63BBB654949",
"5. c #CDCD80807F7F",
"6. c #D1AC82147E7E",
"7. c #D9D98F8F7D7D",
"8. c #DDDDBB3B6464",
"9. c #D858B7377979",
"0. c #EAEAB4B46161",
"q. c #EAEAC8C84646",
"w. c #F146C4C441EC",
"e. c #F0F0C0C04D4D",
"r. c #F449DA844747",
"t. c #ED6DCFCF58D9",
"y. c #F171C4C457D8",
"u. c #EFEFD4D45454",
"i. c #F1F1D8D85B5B",
"p. c #F9F9E5E54C4C",
"a. c #E3E3C31864BA",
"s. c #E7A7C7876828",
"d. c #F4F4C1C166E7",
"f. c #F3F3D4D465E6",
"g. c #E690C7C77979",
"h. c #F5F5C1C17070",
"j. c #F4F4DDDD7171",
"k. c #EBEBD3D370F1",
"l. c #F6F6E4E47822",
"z. c #D328854C812B",
"x. c #D6808AB58257",
"c. c #D6568DCD8707",
"v. c #DBDB94948505",
"b. c #D41394149353",
"n. c #D9D99EDE9D5D",
"m. c #D8D89A9A9717",
"M. c #CDCD86868484",
"N. c #DDDDA0A09C9C",
"B. c #DBDBA976A70D",
"V. c #DBA8ABDEAAAA",
"C. c #DBDBA424A323",
"Z. c #DDDDB0B0AFAF",
"A. c #DD5DB333B2B2",
"S. c #E8E8AE2EA8A8",
"D. c #EB6BBCBCA929",
"F. c #E0E0B35DB25C",
"G. c #E28CB963B6B6",
"H. c #E53ABF14BD67",
"J. c #DDDDC5459A1A",
"K. c #EC96D88286DC",
"L. c #E1E1C8C89090",
"P. c #EAEAD4549494",
"I. c #F272DD5D9D9D",
"U. c #E3E3C7C78585",
"Y. c #FDFDF0F08585",
"T. c #F777E4649B9B",
"R. c #EA3FD7D7A953",
"E. c #F2F2DD32AB00",
"W. c #EFEFCFCFB8B8",
"Q. c #F0F0CBCBB2B2",
"!. c #EA6ADCDCBABA",
"~. c #F2F2DEDEB737",
"^. c #EF6FC3C3A6A6",
"/. c #F676E8E8A929",
"(. c #F49EE993BB10",
"). c #FBFBF5F5BABA",
"_. c #E221C302C282",
"`. c #E7E7C8FBC861",
"'. c #EA94D7D7C6C6",
"]. c #F4F4DADACECE",
"[. c #EBCED445D344",
"{. c #E8E8D983D7D7",
"}. c #F2B2DD5DDB9B",
"|. c #F2F2DEDED7D7",
" X c #EDEDE3E3CB75",
".X c #F3F3E2E2CA1F",
"XX c #ECACE666D858",
"oX c #F0F0ECECDD5D",
"OX c #F449EAEAD72C",
"+X c #F6F6F0F0DADA",
"@X c #EC2BE6A6E464",
"#X c #ED6AEDD1EDDB",
"$X c #EC6CE8E8E565",
"%X c #F312E504E484",
"&X c #F2F2EB40E53A",
"*X c #F1CCEF00EEA5",
"=X c #EFEFF0F0EFEF",
"-X c #F212F1A6EEEE",
";X c #F9C6F58EE416",
":X c #EDADEFAFF21C",
">X c #F0F0EFEFF0F0",
",X c #EF35F221F286",
"<X c #EED1F465FC18",
"1X c #EFEFF8F8F8F8",
"2X c #F35BF471F445",
"3X c #F927F7E0F5DE",
"4X c #F711F906F7CE",
"5X c #F9C6F9C6F6C3",
"6X c #F321F653FC64",
"7X c #F5CAFC9AFDC0",
"8X c #FD1DFF7CFF94",
"9X c None",
/* pixels */
"9X9X9X9X9X9X9X9X9X9X9X9X9X9X9X9X9X9X9X9X9X9X9X9X9X9X9X5X5X8X8X8X8X8X8X5X5X9X9X9X9X9X9X9X9X9X9X9X9X9X9X9X9X9X9X9X9X9X9X9X9X9X9X9X",
"9X9X9X9X9X9X9X9X9X9X9X9X9X9X9X9X9X9X9X9X9X9X3X3X4X3X5X7X8X8X8X8X8X8X8X8X7X5X5X5X3X8X9X9X9X9X9X9X9X9X9X9X9X9X9X9X9X9X9X9X9X9X9X9X",
"9X9X9X9X9X9X9X9X9X9X9X9X9X9X9X9X9X9X9X9X3X3X3X3X4X5X7X8X8X8XV.% i 7X8X8X8X3X7X8X3X3X3X3X9X9X9X9X9X9X9X9X9X9X9X9X9X9X9X9X9X9X9X9X",
"9X9X9X9X9X9X9X9X9X9X9X9X9X9X9X9X9X3X3X3X3X3X3X4X7X8X8X8X%Xu X X X o n.8X8X7X8X7XT.;X6X7X5X5X3X9X9X9X9X9X9X9X9X9X9X9X9X9X9X9X9X9X",
"9X9X9X9X9X9X9X9X9X9X9X9X9X9X9X9X2X3X3X3X3X3X5X5X8X8X8XB X X $ $ + o X 0 8X8X8X;X:.8X7X5X5X3X3X3X9X9X9X9X9X9X9X9X9X9X9X9X9X9X9X9X",
"9X9X9X9X9X9X9X9X9X9X9X9X9X9X3X3X3X3X6X3X4X8X8X8X8XF.- X o # $ $ # o . z.8X8X8X>.y.7X7X7X4X3X3X3X3X3X9X9X9X9X9X9X9X9X9X9X9X9X9X9X",
"9X9X9X9X9X9X9X9X9X9X9X9X9X2X2X2X3X3X4X4X8X8X8X%Xi X X $ $ $ & $ @ o 2 8X8X8X).^ E.8X7X7X7X5X5X6X3X3X3X9X9X9X9X9X9X9X9X9X9X9X9X9X",
"9X9X9X9X9X9X9X9X9X9X9X2X3X3X2X3X4X4X7X8X8X8XB X X + $ $ $ - $ $ o X '.8X8X8X;.~ 3X8X8X8X8X5X4X5X3X3X3X2X3X9X9X9X9X9X9X9X9X9X9X9X",
"9X9X9X9X9X9X9X9X9X9X2X2X3X3X3X3X4X8X8X8XZ.- X O @ $ $ & & & $ O o b 8X8X8XY._ O.8X8X8X[.8X8X8X5X4X3X3X3X3X3X9X9X9X9X9X9X9X9X9X9X",
"9X9X9X9X9X9X9X9X9X3X2X3X3X3X7X7X8X8X%Xu X X + @ @ @ $ & $ $ $ o @ 8X8X8X3X*.~ 0.8X8X}.X d 4X8X8X7X4X7X4X3X6X3X9X9X9X9X9X9X9X9X9X",
"9X9X9X9X9X9X9X9X2X2X3X3X4X5X8X8X8XB o X + @ # @ @ @ @ @ $ $ O o N.8X8X8Xp.$.T E.8X8XC.. . o b.8X8X8X8X3X3X2X3X2X9X9X9X9X9X9X9X9X",
"9X9X9X9X9X9X9X3X2X3X3X7X8X8X8XF.- X o + # + @ o o 7 c @ @ @ o 5 8X8X8X).&.~ R ;X8X8Xk X o o X 1 _.8X8X8X7X4X4X3X3X9X9X9X9X9X9X9X",
"9X9X9X9X9X9X9X3X3X4X8X8X8X%Xu X o % + + + O o o x.8Xc o O o o [.8X8X6X;.&.~ } 8X8X8X+ o # # @ X o a $X8X8X8X4X4X6X9X9X9X9X9X9X9X",
"9X9X9X9X9X9X4X4X7X8X8X8XB X X + + + + O o o g &X8X8XO o o X c 8X8X8XY.&.) F 4.8X8XoXo o o # + + + X o B 8X8X8X7X5X4X9X9X9X9X9X9X",
"9X9X9X9X9X3X3X8X8X8XZ.- X o + # @ O o X ; G.8X8X8XH.o o o @ 8X8X8X;X&.&.~ G P.8X7X8XW.3 o o O @ O + o X $ V.8X8X8X4X3X9X9X9X9X9X",
"9X9X9X9X9X7X8X8X}.i X X + + # + O o o 6.8X8X8X8X8Xl o o o B.8X8X8Xr.&.#.K R OX5X7X7X8X8Xn.@ o o % # # + o X 4 [.8X8X7X9X9X9X9X9X",
"9X9X9X9X7X8X3Xn o X O $ + $ + o X p *X8X8X5X7X8X8X; o X 7 8X8X8X(.$.$.( R K 7X7X6X7X4X8X8X5Xb o o + + + $ O o o j *X8X3X9X9X9X9X",
"9X9X9X2X4X8XN . o + + + O O o ; F.8X8X7X3X6X4X8X`.X o o |.8X7X8X;.$.%.! G @.8X7X3X2X3X3X8X8X8X[.8 o o + @ $ @ o . x.8X7X3X9X9X9X",
"9X9X9X2X5X8XN X + $ O O o o B 8X8X7X4X4X2X7X7X8XM X X M 8X8X8Xl.$.&.+.R G g.7X4X2X2X-X3X2X6X7X8X8Xn.O o O $ $ $ X x.8X4X6X9X9X9X",
"9X9X9X3X4X8XN X $ + O o a %X8X8X8X3X2X2X2X3X8X8X: X & 8X8X8X;X#.$.;.O.T R .X8X6X2X2X2X2X2X2X3X3X8X8X4Xx o O $ + X x.8X3X3X9X9X9X",
"9X9X2X3X4X8XN o $ $ o d 8X8X7X4X2X3X2X2X3X6X8X}.X X S.8X8X8Xr.$.#.q.K G K 7X6X6X2X2X2X2X-X2X3X3X4X4X8X8Xg o $ $ o x.8X6X2X2X9X9X",
"9X9X2X2X6X8XM o $ $ X j 8X4X6X2X2X2X2X2X2X4X8X6.  0 8X7X8X/.#.#.;.4.G G O.7X7X6X2X2X2X>X3X-X-X2X2X4X5X8Xg o $ + X x.8X4X3X2X9X9X",
"9X2X2X2X6X8XM o $ $ o j 8X5X2X2X2X-X2X2X2X8X8X> X ].8X8X7X%.#.#.u.I K G 0.8X6X2X2X2X-X2X-X3X2X2X3X2X7X8X7 o + + X x.8X3X2X2X2X9X",
"9X2X2X3X3X8Xv X + # X j 8X4X2X2X2X2X2X2X2X8X%X. b 8X8X7Xj.#.#.;.t.K G G E.7X7X3X2X3X2X2X2X2X2X2X2X2X4X8X7 o $ $ X x.8X6X2X3X2X9X",
"9X2X2X2X4X8Xv X $ $ o a 8X3X2X2X2X2X2X2X4X8X6.o 8X8X7X+X#.#.#.i.X.K G G ;X7X6X6X6X3X6X2X3X>X2X2X2X6X5X8X0 o $ $ o x.8X3X2X2X2X9X",
"9X2X2X2X3X8Xx o $ $ X j 8X7X2X2X-X2X2X3X7X8X* 7.8X8X7X>.` #.#.k.J K G X.7X8X7X7X6X7X7X7X3X2X2X2X2X3X4X8X0 o $ $ X x.8X6X2X2X2X9X",
"9X2X2X2X3X8Xl X $ & X a 8X4X2X2X:X2X2X3X7X[.< 8X8X7X/.` #.#.u.2.J J K 4.-X&XoXoXoXoX X X>X2X3X2X2X2X4X8X0 o $ $ X x.8X2X2X2X2X9X",
"2X2X2X2X6X8Xj X $ $ X f 8X3X2X2X2X2X2X3X7Xv.D.8X7X7X#.#.#.#.K.J K J J H G F F F F F S F >X2X2X>X2X2X4X8X7 o $ $ X z.8X3X2X>X2X2X",
"2X>X,X2X3X8Xj o $ $ X a 8X6X2X,X>X2X2X2X3X^.7X7X7Xj.` ` #.>.g.H H I J J K J J F F F S ~.6X6X2X-X2X2X3X8X7 o $ $ o z.8X6X2X2X2X>X",
"*X2X2X2X2X8Xp o & $ X a 8X6X2X2X*X2X2X2X2X2X7X7XOX` ` ) ` K. .F J J J I J J J J F F g.7X6X2X2X2X-X2X4X8Xi o $ $ X x.8X2X2X>X>X2X",
"2X*X2X2X4X8Xg X $ $ X a 8X2X2X2X>X2X2X2X3X6X6X6X:.` ` ` ;.L.A D J F J J I J J J F X.7X6X6X2X2X*X2X2X4X8X7 o $ + X z.8X2X2X>X2X>X",
">X2X2X2X6X8Xi o - $ X j 8X3X2X2X2X>X*X2X2X6X6X/._ ` ` ` f.P.2.a.a.a.s.<.H H H F F -X7X6X2X2X-X2X-X2X4X8Xi o $ # X z.8X2X2X2X2X>X",
"*X2X2X2X3X8Xi X & $ X a 8X2X2X=X>X>X>X2X<X6X6X` _ ` _ ' ` { =.=.%.%.l.<.D H F S R.7X7X7X2X,X2X*X-X2X2X8X7 o $ $ X z.8X3X,X2X>X2X",
"2X-X:X2X2X8Xi o $ $ X a 8X2X2X2X2X2X>X>X6X6Xf._ _ _ ' ` ' ' ' ' ) =.s.D D F S 2.7X7X7X}.2X2X-X2X2X2X2X8Xi o $ $ X z.8X2X2X>X>X>X",
"#X2X,X2X7X8Xi X $ & o a 8X3X2X*X>X>X>X<X6X(./ _ _ ` _ ` ` ' ' _ ` f...D S S | 7X8X7X`.S.2X2X,X-X-X2X7X8X7 o $ $ X z.8X2X2X>X2X:X",
"2X#X2X2X2X8Xi o & $ X a 8X2X2X:X2X>X>X<X6Xw./ _ _ ' { ] ' _ ' ' { s.S S S C  X7X8X5Xg -X6X2X2X*X2X2X2X8Xi o $ $ X z.8X3X2X2X>X>X",
"*X#X2X2X2X8Xi X $ $ X a 8X3X2X2X>X2X>X2X2X<X6X6X6X7X6XE._ _ _ _ t. .C C C U.7X7X8Xs v 7X2X2X2X*X-X2X1X8Xi o $ $ X z.8X2X,X2X*X:X",
"9X2X2X,X3X8Xp o & $ X a 8X2X,X,X>X>X>X>X:X6X<X<X6X7X7X:._ _ _ { 2.C C C o.7X7X8XV.X =X7X,X2X*X-X-X-X2X8X0 o $ $ X z.8X2X2X#X2X9X",
"9X2X#X2X2X8Xi o $ & X a 8X2X,X-X>X>X>X>X2X>X2X,X6X6X6X/ / _ _ q.L C C C -X7X8X*XX l 8X2X2X:X2X*X-X2X2X8X0 o + $ X z.8X2X:X2X*X9X",
"9X#X>X,X6X8Xi X $ $ o a 8X2X2X=X>X>X:X2X>X:X,X6X,X6XI.~ ( _ +.o.C C C R.7X8X8X7 . $X7X2X2X*X*X-X-X2X2X8X0 o $ $ X z.8X2X2X#X2X9X",
"9X#X*X2X2X8Xp o $ $ o a 8X6X,X=X:X*X*X*X-X:X2X:X6X6Xw./ _ _ :.Z V t 8.7X7X8Xc.  s 8X7X,X-X#X-X*X#X2X3X8Xy o $ $ X 6.8X2X2X#X2X9X",
"9X2X#X,X1X8Xi o $ $ X j 8X2X2X1X>X,X,X*X#X-X#X2X6X6X~ ^ / ] | C V | 7X7X8X[.X X [.7X2X#X=X-X-X-X-X,X7X8Xi o $ $ X 6.8X2X:X*X#X9X",
"9X9X#X,X2X8Xi X & $ o j 8X4X6X,X2X2X#X#X*X>X>X2X6XE.^ / / +.t t V XX7X8X8X> . 0 8X7X,X-X=X-X-X2X2X2X7X8Xp o $ @ X 6.8X2X2X#X9X9X",
"9X9X2X2X2X8Xi o $ + o 4 8X8X7X2X2X#X2X#X:X#X:X6X7Xe.^ / ] L Z t J.7X8X8Xx . X G.8X,X2X=X=X=X2X2X3X8X8XZ.$ + $ $ X 5.8X2X#X2X9X9X",
"9X9X9X,X1X8Xi o $ $ $ o # b.8X8X7X2X2X,X*X#X2X6X7X^ / ( ( Z t 1.7X7X8XS.X . 1 7X7X=X=X-X=X2X1X7X8X{.6 X O + $ $ X 5.8X,X:X9X9X9X",
"9X9X9X2X2X7X7 X $ + + $ o X 1 _.8X7X2X,X2X,X<X6XE.^ ^ ( Z t Z 1X7X8X@Xo X X N.8X1X:X,X-X1X4X8X4Xm X X @ + $ + + o B 8X,X2X9X9X9X",
"9X9X9X,X,X7Xc.o o o + + # + X X d #X8X7X6X1X,X6X0.^ / ! t t !.7X8X8X8 X X $ 7X7X1X=X2X2X5X8XB.& X O + $ + $ + X X b.8X,X#X9X9X9X",
"9X9X9X9X2X1X7X@Xh o o @ + + + O X o B 7X6X6X<X6X^ ^ ~ V e 9.8X7X8XB X o X z.8X1X1X2X7X8X{.0 X X @ + @ @ + o o 5 `.7X2X2X9X9X9X9X",
"9X9X9X9X9X,X2X7X8XW.2 o o @ @ @ O o X * ;X7X7X!.^ ^ H e ..7X7X7XH.o o o o 2X7X4X7X8X7Xn o X @ $ + @ O o X - V.7X7X4X,X9X9X9X9X9X",
"9X9X9X9X9X#X,X,X1X6X7Xm.$ o O @ + O X = 7X7X7Xd.Q Q t e oX7X7X7X$ o o o x 8X7X8X7XV.& X O @ @ $ $ O o o z.7X8X7X,X,X=X9X9X9X9X9X",
"9X9X9X9X9X9X,X#X:X,X6X5X2Xc o o @ + X z 7X7X1X[ Q A 9 J.7X8X7Xa X O o o @X8X8X[.0 . o + + @ @ @ X o k *X7X7X2X2X,X,X9X9X9X9X9X9X",
"9X9X9X9X9X9X9X#X:X:X1X1X7X8X].y X X X Q.7X7X XW W e 3.7X7X8Xb.o O O o k 8X8Xm o X + $ @ + + o X 4 `.8X8X7X,X,X#X,X9X9X9X9X9X9X9X",
"9X9X9X9X9X9X9X#X#X#X:X,X1X2X7X8XD.= @ 1X7X7Xh.Y r P 7X7X7X[.o o O @ O %X`.- X O # @ # @ o o & C.8X7X,X,X,X,X#X#X#X9X9X9X9X9X9X9X",
"9X9X9X9X9X9X9X9X#X#X#X#X#X#X,X1X7X,X^.7X7X6X[ U 9 '.7X7X7X1 o @ $ @ ; d o o % + + @ o o o B 7X7X7X,X,X=X#X#X#X#X9X9X9X9X9X9X9X9X",
"9X9X9X9X9X9X9X9X9X#X#X#X#X#X,X,X,X,X<X7X<X XU q v.7X7X7Xx X + & $ $ + + @ + + @ O o o h #X7X1X:X,X=X#X#X#X#X#X9X9X9X9X9X9X9X9X9X",
"9X9X9X9X9X9X9X9X9X9X$X#X#X#X#X#X:X,X,X<X7Xh.w ..7X1X7XV.X @ $ & ; ; $ $ + @ @ o o 2 _.8X7X1X,X#X#X=X#X#X#X#X9X9X9X9X9X9X9X9X9X9X",
"9X9X9X9X9X9X9X9X9X9X9X#X#X$X#X#X#X#X:X<X<XE q $X7X7X{.X o @ $ & $ & $ $ @ o o $ m.7X7X,X,X,X#X#X$X#X#X#X#X9X9X9X9X9X9X9X9X9X9X9X",
"9X9X9X9X9X9X9X9X9X9X9X9X9X#X#X#X#X:X:X<X].w J.<X1X7X4   o + & & $ $ $ @ o o M 4X7X1X,X,X#X#X#X#X#X#X#X9X9X9X9X9X9X9X9X9X9X9X9X9X",
"9X9X9X9X9X9X9X9X9X9X9X9X9X9X#X#X$X:X:X<X0...6X6X<X1X_.0 o o + $ $ O o o a XX7X7X:X:X#X#X#X#X#X#X#X#X9X9X9X9X9X9X9X9X9X9X9X9X9X9X",
"9X9X9X9X9X9X9X9X9X9X9X9X9X9X9X9X#X#X:X<X1.@X6X:X:X1X7X7XA.: o X o o , G.7X7X,X=X:X#X#X#X#X#X#X#X9X9X9X9X9X9X9X9X9X9X9X9X9X9X9X9X",
"9X9X9X9X9X9X9X9X9X9X9X9X9X9X9X9X9X#X:X X'.<X:X#X#X#X:X1X7X1XM.X X v.7X7X1X,X#X#X#X#X$X$X#X#X#X9X9X9X9X9X9X9X9X9X9X9X9X9X9X9X9X9X",
"9X9X9X9X9X9X9X9X9X9X9X9X9X9X9X9X9X9X9X9X:X:X#X#X#X#X#X#X1X1X7X$X$X7X7X,X:X#X#X#X$X#X#X#X9X9X9X9X9X9X9X9X9X9X9X9X9X9X9X9X9X9X9X9X",
"9X9X9X9X9X9X9X9X9X9X9X9X9X9X9X9X9X9X9X9X9X9X#X#X#X#X#X#X#X:X:X,X,X,X#X#X#X#X#X$X#X#X9X9X9X9X9X9X9X9X9X9X9X9X9X9X9X9X9X9X9X9X9X9X",
"9X9X9X9X9X9X9X9X9X9X9X9X9X9X9X9X9X9X9X9X9X9X9X9X9X9X9X#X#X#X#X#X,X,X#X#X#X9X9X9X9X9X9X9X9X9X9X9X9X9X9X9X9X9X9X9X9X9X9X9X9X9X9X9X"
};
