/* XPM */
static char *_c4691dc9f3e4145bbe523ec27a9a657HVKMcUmR2cGFRfvF[] = {
/* columns rows colors chars-per-pixel */
"64 64 224 2 ",
"   c None",
".  c #AD120F",
"X  c #A71412",
"o  c #AD1212",
"O  c #AB1B14",
"+  c #AA1618",
"@  c #A71B1A",
"#  c #A91B1B",
"$  c #A41A16",
"%  c #B01012",
"&  c #B0110F",
"*  c #AC221C",
"=  c #B0251D",
"-  c #AC1E22",
";  c #AB2325",
":  c #AC2A22",
">  c #AD2C2D",
",  c #A92526",
"<  c #B02B2B",
"1  c #B12F22",
"2  c #AD322D",
"3  c #B4392B",
"4  c #AD2E31",
"5  c #AC3634",
"6  c #B23231",
"7  c #B43B39",
"8  c #B9483A",
"9  c #BD503C",
"0  c #B03F42",
"q  c #B14542",
"w  c #B54B4B",
"e  c #B34B47",
"r  c #BA5448",
"t  c #B95554",
"y  c #B85858",
"u  c #AF5353",
"i  c #BF6351",
"p  c #BD6464",
"a  c #BF6768",
"s  c #C35D4F",
"d  c #C26555",
"f  c #C46856",
"g  c #C3695B",
"h  c #C7745F",
"j  c #C26B68",
"k  c #C97867",
"l  c #C37474",
"z  c #C67C7C",
"x  c #C57976",
"c  c #D58A0E",
"v  c #CD8613",
"b  c #CD8B17",
"n  c #D28C13",
"m  c #DB8F17",
"M  c #D59214",
"N  c #DA9514",
"B  c #DD9914",
"V  c #DA971C",
"C  c #DD9B19",
"Z  c #D6951A",
"A  c #CE860D",
"S  c #E19D15",
"D  c #E69917",
"F  c #F19D13",
"G  c #E9950F",
"H  c #F3AC0E",
"J  c #F3A70F",
"K  c #F3B30E",
"L  c #F4BB0E",
"P  c #F8B90E",
"I  c #E2A116",
"U  c #E6AB15",
"Y  c #E4A41B",
"T  c #EAAA17",
"R  c #F1A311",
"E  c #F2AA14",
"W  c #ECB817",
"Q  c #F2B312",
"!  c #F3BA13",
"~  c #F0BA1D",
"^  c #CA8C2A",
"/  c #D89A25",
"(  c #D49737",
")  c #D08C25",
"_  c #D9A22B",
"`  c #D9A736",
"'  c #E7AB2B",
"]  c #E9B829",
"[  c #F1BC26",
"{  c #E6AE3D",
"}  c #ECB233",
"|  c #F0A82D",
" . c #F4C40D",
".. c #F3CB0D",
"X. c #F5D10D",
"o. c #EFC41C",
"O. c #F2C413",
"+. c #F3CC14",
"@. c #F3C319",
"#. c #F4D215",
"$. c #F2C926",
"%. c #F3D529",
"&. c #ECC636",
"*. c #EEC33A",
"=. c #EECA3F",
"-. c #F1CB39",
";. c #EFCC32",
":. c #D29D4B",
">. c #D7AA54",
",. c #DAAD46",
"<. c #E4B54B",
"1. c #E1B254",
"2. c #E8AC54",
"3. c #CB826D",
"4. c #C9877A",
"5. c #D6AA63",
"6. c #DEBC7A",
"7. c #DCBC62",
"8. c #E3BD6B",
"9. c #EBC649",
"0. c #F4D645",
"q. c #EDC65D",
"w. c #F2D356",
"e. c #F0CC59",
"r. c #E8C565",
"t. c #ECD66A",
"y. c #F2D963",
"u. c #E9C479",
"i. c #F1CA72",
"p. c #F4E271",
"a. c #C98786",
"s. c #CD948D",
"d. c #D39989",
"f. c #CD8E91",
"g. c #CE9492",
"h. c #CA9B95",
"j. c #D19594",
"k. c #D39995",
"l. c #DAA18B",
"z. c #DCBB87",
"x. c #D5A49D",
"c. c #D9A89C",
"v. c #DFB39F",
"b. c #E0BC8B",
"n. c #D39FA1",
"m. c #D6A5A4",
"M. c #D8ABA8",
"N. c #DEBBAA",
"B. c #DCB3B2",
"V. c #DCBBB8",
"C. c #D9AFB0",
"Z. c #E1B8AA",
"A. c #E1BBB8",
"S. c #DFC89D",
"D. c #E6C78B",
"F. c #F2D78B",
"G. c #EAD190",
"H. c #F4E287",
"J. c #F6E891",
"K. c #EBE29F",
"L. c #DFC8B1",
"P. c #E3C7A8",
"I. c #EAD7A5",
"U. c #F0DDA5",
"Y. c #E4C6BA",
"T. c #E9D9B9",
"R. c #F1DEB6",
"E. c #F3E6A3",
"W. c #F5E6B4",
"Q. c #F7F2B7",
"!. c #E0BCC0",
"~. c #E3C6C4",
"^. c #E5CAC3",
"/. c #E5CECC",
"(. c #E8CEC9",
"). c #EAD7C8",
"_. c #E6CFD1",
"`. c #E6D1D1",
"'. c #EAD5D3",
"]. c #EDDDD4",
"[. c #EEDBDB",
"{. c #F1DADB",
"}. c #F0DBD7",
"|. c #F0DEC6",
" X c #ECE3CC",
".X c #F2EBC9",
"XX c #F4E8C5",
"oX c #EEE2DD",
"OX c #ECE9DB",
"+X c #EEE9D2",
"@X c #F1E5DB",
"#X c #F3ECDB",
"$X c #F3EAD5",
"%X c #F7F2DC",
"&X c #F8F3D8",
"*X c #F6F1CA",
"=X c #EEDFE2",
"-X c #EEE4E4",
";X c #EEEAE5",
":X c #EDEDED",
">X c #F1E6E4",
",X c #F4EDE5",
"<X c #F2EDEC",
"1X c #F5E9EC",
"2X c #EEF1EE",
"3X c #F6F2E4",
"4X c #F3F2ED",
"5X c #F8F3EE",
"6X c #FAF8E9",
"7X c #EEEEF1",
"8X c #F2EEF1",
"9X c #EEF1F1",
"0X c #F3F4F3",
"qX c #F9F5F5",
"wX c #F6F9F5",
"eX c #F9F9F5",
"rX c #F6F6F9",
"tX c #F9F6F9",
"yX c #F6F9F9",
"uX c #F8F8F8",
"iX c #F9F9F9",
"pX c #F9F9F8",
"aX c gray98",
"sX c #FAF9F9",
/* pixels */
"                                                    aXaXaXaXaXaXaXaXaXaXaXaX                                                    ",
"                                            iXiXaXaXaXaXaXaXaXaXaXaXaXaXaXaXaXaXaXaX                                            ",
"                                        iXiXiXiXiXiXiXaXiXaXaX8XeXiXaXaXiXiXiXaXeXaXiXiXaX                                      ",
"                                    iXiXiXiXiXiXiXiXiXaXtX0Xm.5 z >XaXiXiXiXiXyX5XeXiXiXaXiXiX                                  ",
"                                iXiXiXiXiXiXiXiXiXaXiXtX_.y o o o 7 V.qXiXiXiXqXK.wXeXiXiXiXiXiX                                ",
"                            iXiXiXiXiXiXiXiXiXiXiXiX<Xa.# % o % o o + 4.iXiXeXE.U.eXeXiXiXiXiXiXiXiX                            ",
"                          uXiXiXiXiXiXiXiXiXyXiXqXC.6 o o o o o o o O P.aXaX&X-..XuXiXiXiXiXiXiXiXiXuX                          ",
"                      uXiXuXuXiXqXiXtXiXiXiXqX~.t # o o o o o o o o g eXeXeXp.] 6XiXiXiXiXuXiXyXiXuXuXuXiX                      ",
"                    uXuXuXuXuXuXiXtXiXeXyX>Xx - . o o o o o o o o ; @XwXeXQ.$.q.wXuXuXuXuXuXuXeXuXuXuXuXuXuX                    ",
"                  iXuXuXuXuXuXuXyXtXeX8Xm.4 o o o o o o o o o % + d.wXuX6Xw.! F.uX0X`.`.qXyXtXuXuXuXuXuXuXuXiX                  ",
"                iXuXuXuXuXuXuXuXiXtX_.y + o o o o o o o % o . o 8 ,XqXeXJ.#.T W.aXqXx , f.<XrXqXuXuXuXuXuXuXuXuX                ",
"              uXuXuXuXuXqXuXuXwX<Xz # o o o o % o o . o o o o # Y.tXeX&X%.O.} %XyXqXe % X 4 B.rXyXqXyXuXuXuXuXuXuX              ",
"              uXuXuXuXrXuXuX8Xm.4 o % o o o o % o 9 h o o % o h eXwXyXp.X.U <.eXyX'.; o % o O y ~.qXuXuXuXuXuXuXuX              ",
"            uXuXuXuXuXrXuX'.y + o o + % . o o : l.,Xt o o X 3 ].eXaXQ.#.O.U u.wXrXM.+ % o o o o ; l >XuXuXyXuX0XuXuX            ",
"          uX0XuX0XuXqX>Xl - o o o % o o o * x $XuX=X, o o O c.wXyX6X0.#.W I R.eXuXc.# % o o o % o o > g.<XrXwXuXuXuXuX          ",
"          uXuXwXuX<Xm.4 o . o o o o % O r ^.0XuXuXm.X o o 9 5XuXwXJ.X...U ' $XeXrX0XY.9 o % % o o o o X 7 A.<XuX0XuXuXuX        ",
"        uX0XuX0X~.r o o o o o % % o > x.4X0XrXuXqXp o o O ).wXeX*X%.X.! I <.5XrXuXuXqX,Xk.: o o o o o o % o p `.wXuXrXuX        ",
"        uXuXwXx $ % o o o o o o - x -XuXuXuXuXrX>X4 o o 3.qXuX6Xy.X.#.Y I r.uX0XuX0XuXuXwX>Xk + o o o o o o o - s.wX0XuXuX      ",
"      uXuXwX5X6 . o o o o o + t /.rXrX0X0XuX0XrXC.o . : @XwXqXW.#.X.o.Y Y U.0XuXwX0XuX0XwXqXrX~.t + o o o o % o f 6XrX0XuX      ",
"      uX0XuXqX6 o o o o o , n.<X0X0XuXuXuXuX0XuXx o o l.qXuX3X0...#.W I C XXuX0XuX0XuXqX0XwX0XwX1Xk., o % o o o f 5XrXuXuXuX    ",
"    uXrXuXwX5X6 o o o o j [.rX0X0XuXuX0X0XuXuX8X> X r ,XwX9XH.+.+.%.Y S { %XuXuXuX0XuX0XuX0XuXuXuX0X'.t o o o . f qX0X0X0X0X    ",
"    0XqX0X0XqX6 o o o o [.0XuXuX0X0XuXuXuX0X0X~.o * Y.qXuX*X$...#.] I C 8.wX0XuX0XuX0XuX0XuXwX0X0XuXrXj.o o o o f 5XwXuX0XuX    ",
"  uX0X0XrXqX1X6 o o o + {.0XuX0XuX0XuX0X0X0X0Xz X 3.0XyX6Xw.....;.' S Y D.0X0XuXuX0XuX0XuX0X0XwX0X0X0Xg.o o o o f 5X0X0X0XuXuX  ",
"  0XrX0X0XqX1X6 % o o X {.0X0X0XuX0X0X0XuX0XrX5 3 OXwX0XE.+...+.9.S S C XXuX0X0X0X0XuX0X0X0XuX0X0XuXuXg.o o o o f 5X0XuX0X0XuX  ",
"  0X0XuXuX0X1X6 o o o X {.rXuXuX0X0X0XuX0X0X/.$ v.wXuX3X-. ...0.' C S _ 4XuX0X0X0X0XuX0X0XuX0XuX0XuXuXg.o o o o f qX0XwX0XrX0X  ",
"  uX0X0X0X0X>X6 o o . X {.0X0X0X0XuX0X0XuXuXa.r wX5XuXH. . .O.e.S C B <.6X0X0XuXuXuX0XuX0X0X0XuX0X0X0Xj.o o % o f 5XwX0X0X0X0X0X",
"0X0X0X0X0X0X=X< o . o X {.0X0X0X0X0X0X0X0X:Xr ).0X0X.X$.....-.<.C B S u.4X6X5X4X5X5X6XwX0XuX0X0X0X0X0Xj.o o o o f 5X0X0X0X0XuX0X",
"uX0X0X0X0XuX{.< o o o X {.0X0XrXuX0X0XrXwX).4.0XuX4Xy. ...O.y./ B B C ` 1.1.1.1.1.>.1.D.0X0X0X0X0X0X0Xf.o . o o f 5X0X0X0X0X0X0X",
"0X0X0X0X0X0X{.< o o o X {.8X0X0X0X0X0X0X0XL.,X0X0XE.@. . .$.r.C B B B B B B B B B C _  X0X0X0X0XuX0X0Xg.o o o o d 5XrX0X0X0X0X0X",
"0X0X0X0X0X0X'.; o % % X {.0X0X0X0X0X0X0XwX+X0X0X%X*. .L  .t./ B B B B B B B B B B V I.0XwX0X0X0X0X0X0Xg.o o o . f wX9X0XuX0X0X0X",
"0X0X0X0X0X9X'.; o o o X {.0X0X0X0X0X0XuX0X0X0X6Xi.!  . .o.u.B C N N N N N N N B N 8.4X0X0X0X0X0XuX0X0Xg.% o o o d 4X0X0X0X0X0X0X",
"0X0X0X0X0X0X`.; % o o X {.0X0X0X0X0X0X0X0X0X0X.X$. .L  .w.7.` ` ` ` ` / N N N N ` $X0X0X0X0X0X0X0X0X0Xg.o o o o f 5X9X0X0X0X0X0X",
"0X0X0X0X0X0X_.; o o o X '.0X0X0X0X0X9X0X0X0X5X9.L  .P  .o.&.&.*.&.&.t._ Z M N V T.wX0X0X0X0X0X0X0X0X0Xg.% o o % d <X0X0X8X0X0X0X",
"0X0X0X0X9X0X_.- o o o X {.0X0X0X0X0X0X0X0XqXK.! L L L L ! L L L  .W r.M N N M D.0X0X0X;X8X0X0X8X9X0X0Xg.o o o . d 5X0X0X0X0X0X0X",
"7X0X0X0X0X0X_., o o o o {.0X0X0X4X0X0X0X0X$X*.L P L Q P L L L L L e./ M M Z >.3X0X0XV.-X0X0X0X0X0X0X0Xs.o o o o d 5X0X0X0X0X7X0X",
"8X0X7X0X0X0X_.- o o o X [.0X9X0X0X0X0X0X0XF.[ W ~ W ~ ~ L ! L P o.<.M M M / +X4X9X/.h.0X0X0X0X0X0X7X0Xg.o o o o d <X0X0X0X0X7X0X",
"0X0X8X0X0X0X_., o o o o {.0X0X0X9X7X0X0X:X3X%X#X%X%X%XF.L L K ! 9./ M m / I.0X<X<Xu /.2X0X7X0X7X8X0X9Xg.o o o . f <X0X7X8X0X0X7X",
"9X0X0X9X8X0X_.; o o o X '.0X0X8X0X0X9X4X0X9X0X0X0X2X6Xe.K K Q ~ ` M M b 6.:X0X9Xz p 4X0X8X0X0X4X9X0X0Xg.o o o o d 4X9X0X0X9X0X0X",
"  0X0X7X0X0X_., o o o X {.0X0X8X8X0X0X8X0X0X0X0X0X0X+X[ K L Q &.M m M ` <X0X4XB.@ Y.0X9X0X0X0X0X0X9X0Xs.o o o o d 5X0X0X0X0X4X7X",
"  0X:X0X8X8X_.- o o o X '.9X0X4X0X9X0X0X8X0X9X9X0X0XU.Q K K [ _ c n M ).4X0X'.5 q <X9X0X<X0X7X0X<X0X0Xf.o o o o d <X7X0X:X7X0X  ",
"  0X2X0X:X0X/.; o % o X '.0X7X0X2X0X<X9X0X0X2X0X0X4Xq.K K K ] b n n D.7X4X<Xy X C.4X0X9X0X:X0X0X9X0X8Xg.o o o o d 1X9X8X0X0X:X  ",
"  :X0X9X0X8X_.; o o o o '.0X0X9X0X:X0X7X9X8X0X:X0X#X] H H Q C n n >.4X9X0Xa.. 2 1X4X2X0X9X8X4X7X8X7X0Xf.o o o o f 4X7X0X0X7X0X  ",
"    0X8X8X0X_.; o o o + [.8X8X9X8X0X7X0X7X0X4X8X4XU.E H H U b b (  X8X4XV.; o j.0X9X0X7X:X0X8X9X2X0X0Xg.% o o o d 4X0X0X0X:X    ",
"    :X0X9X7X_.; o o o o j.1X8X0X4X9X0X:X0X9X0X2X4Xr.E H Q n b b I.0X9X=X2 o 6 oX9X2X<X0X0X2X0X0X9X<XB.6 o o o o d 1X9X:X:X0X    ",
"    :X0X:X8X/.; o o o o X q Y.<X9X8X9X<X:X0X:X4X$X} H E I A b 6.7X9X<Xj o o 4.7X9X0X0X4X7X0X0X7X`.j + o o o o o d 4X0X9X0X0X    ",
"      :X0X7X_.; o & % o o o - l [.9X4X0X8X9X9X8XU.E H E c n :.OX7X9Xm.o o ; ].:X8X:X:X2X:X7X<Xf.> X o o o o o o d <X:X8X:X      ",
"      0X9X2X:Xg O % o o o o % o , k.<X8X8X7X8X2Xi.J H B A )  X2X9X'.; o o j 2X0X9X0X:X0X<XA.0 o & o o o o o o + 4.<X7X9X0X      ",
"        :X:X4X<XZ.e o o o o o o o + q B.1X4X9X,X' J U A b P.4X9X-Xw o o @ ~.4X2X8X2X8X`.j X o o o o o o o + w Y.:X2X4X:X        ",
"          0X:X0X:XOXl.1 o o O & o o o * P.<X8XR.R R M v 5.;X2X<Xa.o o o s ;X<X8X:X1Xk.> o o o . o o o o 6 m.-X8X2X7X4X7X        ",
"          :X:X:X7X8X<X].k = . o & o o = ].2X8Xu.R F A ^ OX2X9XB.+ o o o V.2X:X:X!.e + o % o o o o o ; 4.oX7X2X2X9X<X:X          ",
"            7X4X:X:X9X0X<X).d O & o & s ,X<X3X| R c ) P.2X8X(.< o o o 8 :X8X/.p + o o o o o o o * j ].:X4X:X8X7X7X:X            ",
"              7X:X8X:X7X4X<X,XZ.8 o . d.:X2XR.F G A z.2X:X<Xt X o o . s.1Xf.< o o o % X o o o e A.<X8X2X:X9X:X:X:X0X            ",
"              :X:X7X2X8X:X9X<X9X<Xl.3 ).8X1X6.F c :.;X7X<Xa.o o o o ; A.2 o o o o o o o o 2 c.:X<X:X2X2X7X2X0X:X:X              ",
"                :X:X:X2X:X:X:X:X:X:X$X<X8X$X<.G ^ ).7X7XV.+ % o o o = o . o o o o o o : 4.[.7X:X:X2X7X:X:X:X:X:X                ",
"                  :X:X:X7X<X:X7X:X:X:X:X8XR.D v S.<X:X-X7 o o o o o o o o o o o o + d (.:X:X:X:X:X2X:X:X7X7X:X                  ",
"                    7X:X:X:X:X:X:X7X<X<X8XD.m 5.:X:X;Xl o + o o o o o o o o o + 8 N.;X:X7X:X:X:X:X:X:X7X<X:X                    ",
"                      <X9X:X:X:X:X:X:X:X;X2.( -X2X9Xm.+ o % o o . o o o o . 7 d.;X:X:X:X:X:X:X:X:X:X7X:X:X                      ",
"                          :X:X:X:X:X:X:X|.( T.7X2X9Xa + o o o X o % o o * 4.].;X:X:X:X:X:X:X:X:X:X:X:X:X                        ",
"                            :X:X:X:X:X:XD.b.:X;X:X:X;XV.7 o X X o o X i ].;X:X:X;X:X:X:X:X:X:X:X:X:X                            ",
"                              :X:X:X:X<Xz.1X:X:X:X:X:X:X:Xf.4 $ o 8 N.;X:X:X:X:X:X:X:X:X:X:X:X:X:X                              ",
"                                  :X:X;XOX;X:X:X:X:X:X:X:X:X/.a s.[.:X:X:X:X:X:X:X:X:X:X:X:X:X                                  ",
"                                      :X7X:X:X:X:X:X:X:X:X:X:X:X:X:X:X:X:X:X:X:X:X:X:X:X:X                                      ",
"                                            :X:X:X:X;X:X:X:X:X:X:X:X:X:X:X;X;X:X:X:X                                            ",
"                                                  :X:X:X:X:X;X;X:X:X;X:X:X:X:X                                                  "
};
