/* XPM */
static char *d16e9314ed0c42a6bb6ba6d5893690850NtbkvadfDlu7O9N[] = {
/* columns rows colors chars-per-pixel */
"32 32 167 2 ",
"   c None",
".  c #AD1213",
"X  c #AD1917",
"o  c #AD1A1B",
"O  c #B01D1A",
"+  c #AE2322",
"@  c #B12323",
"#  c #B52B24",
"$  c #B22A29",
"%  c #B5352F",
"&  c #B43433",
"*  c #B63C3B",
"=  c #B7403E",
"-  c #B9423C",
";  c #B73F41",
":  c #B94343",
">  c #BC4A43",
",  c #B94A49",
"<  c #BE5657",
"1  c #BF5B54",
"2  c #C0544B",
"3  c #C05C5B",
"4  c #C05C52",
"5  c #C4655C",
"6  c #C26263",
"7  c #C36867",
"8  c #C66F67",
"9  c #C9756C",
"0  c #CB7A6F",
"q  c #C66F70",
"w  c #C57271",
"e  c #C97374",
"r  c #CD7C71",
"t  c #CB7B7A",
"y  c #D28E18",
"u  c #D69216",
"i  c #DB9613",
"p  c #DD9915",
"a  c #D49019",
"s  c #D89719",
"d  c #D6991E",
"f  c #E79711",
"g  c #E19E18",
"h  c #DFA31E",
"j  c #F3B30E",
"k  c #F5BB0E",
"l  c #E5A115",
"z  c #EAAC13",
"x  c #F2AB11",
"c  c #EBB31A",
"v  c #F4BA11",
"b  c #F0B019",
"n  c #D18F23",
"m  c #D89A21",
"M  c #DD9527",
"N  c #D79E36",
"B  c #D89833",
"V  c #DFA129",
"C  c #DBA030",
"Z  c #DEA63A",
"A  c #E4AE2F",
"S  c #E2A625",
"D  c #F0A824",
"F  c #EEB721",
"G  c #E9B92C",
"H  c #F1BE23",
"J  c #E2B13E",
"K  c #F4C50E",
"L  c #EFC014",
"P  c #F3C612",
"I  c #F1C81B",
"U  c #F4D013",
"Y  c #F3C72F",
"T  c #F3CA27",
"R  c #F4D62E",
"E  c #EFC230",
"W  c #EAC43C",
"Q  c #D5A246",
"!  c #EEAE46",
"~  c #E7B850",
"^  c #F1BE57",
"/  c #D8AE6B",
"(  c #DFB464",
")  c #EECA4C",
"_  c #F0C043",
"`  c #E9C755",
"'  c #F4DA55",
"]  c #F3D058",
"[  c #EFCB6E",
"{  c #F4D96E",
"}  c #EAC97F",
"|  c #F2D87E",
" . c #F5E06A",
".. c #CE8483",
"X. c #CF8C8C",
"o. c #D18D80",
"O. c #D08C8B",
"+. c #D08382",
"@. c #D5968A",
"#. c #D29392",
"$. c #D69D9E",
"%. c #D6A89B",
"&. c #D6A49D",
"*. c #D7A2A1",
"=. c #D6A9A7",
"-. c #DCACA3",
";. c #D9ACAA",
":. c #DDB1AC",
">. c #DEB4B3",
",. c #DFBEB7",
"<. c #DEBCBB",
"1. c #E2BEB5",
"2. c #E0BBBA",
"3. c #E6C682",
"4. c #E1C28D",
"5. c #F0CB88",
"6. c #F3DA87",
"7. c #E6C79D",
"8. c #F2DB9D",
"9. c #F1D495",
"0. c #F3E391",
"q. c #EBCDA2",
"w. c #E9D3A2",
"e. c #ECD6A9",
"r. c #E5D2AE",
"t. c #E3C5BD",
"y. c #E8D5B1",
"u. c #EDDAB1",
"i. c #E6D4B8",
"p. c #F7EDAE",
"a. c #E3C5C5",
"s. c #E4C8C6",
"d. c #E3CCC9",
"f. c #E8CECD",
"g. c #EADEC6",
"h. c #E9D4CC",
"j. c #E6D3D2",
"k. c #EAD5D5",
"l. c #EBDBD7",
"z. c #EDDFDF",
"x. c #EEE3C8",
"c. c #F1E1C7",
"v. c #F3EBC3",
"b. c #F3E7C8",
"n. c #F3E9CA",
"m. c #F7F3CF",
"M. c #EEE5DB",
"N. c #F1E9D8",
"B. c #F7F0D0",
"V. c #F6F3DE",
"C. c #EDE5E4",
"Z. c #EDE9E4",
"A. c #EEEDED",
"S. c #F1E4E3",
"D. c #F2EBE4",
"F. c #F2EDEC",
"G. c #EFF0EE",
"H. c #F5F2E4",
"J. c #F3F2EC",
"K. c #EFEFF0",
"L. c #F4F3F3",
"P. c #F9F7F4",
"I. c #F9F8F6",
"U. c #F9F9F9",
"Y. c #F8F8F8",
"T. c gray98",
"R. c #F9F9FA",
/* pixels */
"                        T.T.R.R.R.R.R.R.                        ",
"                  R.T.T.T.T.R.s.k.R.R.R.P.U.T.                  ",
"                R.Y.Y.Y.R.k.6 O @ +.P.H.v.T.U.U.T.              ",
"            Y.Y.Y.R.R.S.O.@ . . . 9 P.| b.U.U.U.Y.Y.            ",
"          Y.Y.Y.Y.Y.a.; . . . . # D.B.) L.J.U.U.Y.Y.U.          ",
"        Y.Y.Y.Y.k.6 . . . . . . -.P.' [ I.< 7 k.Y.Y.Y.Y.        ",
"      P.Y.P.L.#.O . . . 3 2 . 2 T.p.P 8.P.o . o X.F.U.P.Y.      ",
"      Y.L.2.: . . . - 1.z.@ . 2.H.R b v.F.2 . . . ; :.L.Y.Y.    ",
"    P.j.6 . . . & $.F.R.2.. / Y.{ U A J.P.L.:.: . . . < s.L.    ",
"  Y.P.... . . 6 S.Y.R.L.t % z.N.U c ~ L.L.P.P.J.t X . . t Y.Y.  ",
"  L.L.+.. . 2.L.R.L.L.F.* %.L.' U l 3.P.P.Y.Y.L.P.f.. . r L.P.  ",
"  L.L.+.. . F.L.L.L.L.;.1 J.0.K G p u.Y.L.L.L.Y.L.L.. . r P.L.P.",
"Y.L.L.+.. . F.L.L.L.P.t 1.V.T T S V N.P.L.Y.L.L.L.L.. . r L.Y.L.",
"L.L.L.t . . F.L.L.R.L.%.F.{ P W p S w.e.e.u.L.L.L.L.. . r Y.L.L.",
"L.L.Y.e . . F.L.L.L.M.F.v.P I J p p p p p 3.L.L.L.L.. . r L.L.L.",
"L.L.L.q . . F.K.L.L.L.P.] k ] m s s i i Z J.L.L.L.L.. . t L.L.L.",
"L.L.L.q . . F.L.L.L.L.6.v k T Y Y ` u N x.K.L.L.L.L.. . 0 L.L.L.",
"L.L.K.q . . F.K.L.L.Z.I v v j k E d i w.K.d.L.L.L.K.. . 0 L.L.L.",
"K.L.L.q . . F.K.L.K.H.n.n.0.v v Z u ( F.=.l.L.L.L.K.. . r K.K.L.",
"L.K.K.q . . D.L.L.L.L.G.L.5.j F i N N.>.7 L.K.L.L.K.. . 0 L.L.K.",
"  K.L.q . . D.L.K.K.L.G.J._ j h a r.Z., >.K.L.K.L.F.. . 0 L.K.L.",
"  L.K.q . . z.K.K.L.K.L.n.x z y 4.G.e 1 J.K.K.L.K.k.. . 0 K.L.  ",
"  K.K.e . . + *.G.K.G.L.9.x u Q J.>.X >.K.A.L.Z...X . . 0 A.A.  ",
"    L.;.- . . o 1 a.F.A.^ l n g.j.$ * C.K.L.>., . . . & =.L.    ",
"    K.K.Z.@.# . . o h.x.D a r.A.> . #.L.j.3 . . . + ..C.A.A.    ",
"      K.K.K.l.8 . # H.5.f / A.X.. @ k...+ . . . 1 j.G.K.A.      ",
"        A.L.J.F.,.@.J.! B M.<.X . - * . . . = ;.G.G.K.A.A.      ",
"          A.A.K.G.K.N.l i.j.$ . . . . . $ &.A.A.A.A.A.          ",
"            A.A.A.A.q.%.A.w . . . . O 9 d.A.K.A.A.G.A.          ",
"              A.A.A.7.A.A.d.< X . 4 a.F.A.A.A.A.A.              ",
"                  A.M.A.A.A.A.<.,.Z.A.A.A.A.A.                  ",
"                      A.A.A.A.A.A.A.A.A.A.                      "
};
